<svg class="diagram-root" style="background: #f5f6f6" xmlns="http://www.w3.org/2000/svg" xmlns:xlink="http://www.w3.org/1999/xlink"><style>.diagram-root { font-family: "Helvetica Neue", sans-serif; font-size: 12px; } .t { overflow: visible; } .t-bg { y: 40; fill: #fff;   } .th { fill: #005aa0;   } .tht { fill: #fff; font-size: 14px;  } .tf { fill: #323c46; overflow: visible; } .tf.pk { fill: #005aa0; font-weight: bold; } .tf.fk { font-weight: bold; } .ty { fill: #adb1b5; font-weight: normal; text-anchor: end; } .r { fill: transparent; stroke: #c3c3c3; stroke-width: 1; } .l { stroke: 1; } .i { fill: #c2c7ce; stroke: #c2c7ce; } .i.ix { fill: #afb3b6; stroke: #000; } .fa { fill: transparent; overflow: visible; } .fa .bg.hover { fill: #f7f7f7; } .c { cy: 12; r: 4; stroke: #d2d2dc; fill: #d2d2dc; } .hr { fill: transparent; stroke: #323c46; stroke-opacity: 0.035; stroke-width: 13; } .dc { stroke: #fa5a3c; fill: #fa5a3c; } .x { stroke: white; stroke-width: 1; } .hl .th { fill: #1b9bff; } .hl .tht {  } .fhl .bg { fill: #e7f4ff; } .fhls .bg {  } .r.hl { stroke: #1b9bff; } .dim { opacity: 0.25; }</style><g class="drawing-wrapper" transform="translate(-68, -588.25) scale(1,1)"><g class="rs"><path d="M 813.31 973.78 m -1, 0 a 1,1 0 1,0 2,0 a 1,1 0 1,0 -2,0 M 813.31 973.78 m -0.5, 0 a 0.5,0.5 0 1,0 1,0 a 0.5,0.5 0 1,0 -1,0  M813.31 973.78 L813.31 973.78 825.31 973.78 M 813.31 979.78 m -1, 0 a 1,1 0 1,0 2,0 a 1,1 0 1,0 -2,0 M 813.31 979.78 m -0.5, 0 a 0.5,0.5 0 1,0 1,0 a 0.5,0.5 0 1,0 -1,0  M813.31 979.78 L813.31 979.78 820.31 973.78 813.31 967.78 M 813.31 967.78 m -1, 0 a 1,1 0 1,0 2,0 a 1,1 0 1,0 -2,0 M 813.31 967.78 m -0.5, 0 a 0.5,0.5 0 1,0 1,0 a 0.5,0.5 0 1,0 -1,0  M825.31 973.78 Q 861.67 973.78, 898.03 1000.39 T 970.75 1027 M 982.75 1027 m -1, 0 a 1,1 0 1,0 2,0 a 1,1 0 1,0 -2,0 M 982.75 1027 m -0.5, 0 a 0.5,0.5 0 1,0 1,0 a 0.5,0.5 0 1,0 -1,0  M982.75 1027 L982.75 1027 970.75 1027 M976.75 1033 L976.75 1033 976.75 1021" id="h744902712" class="r"></path><path d="M 813.31 998.78 m -1, 0 a 1,1 0 1,0 2,0 a 1,1 0 1,0 -2,0 M 813.31 998.78 m -0.5, 0 a 0.5,0.5 0 1,0 1,0 a 0.5,0.5 0 1,0 -1,0  M813.31 998.78 L813.31 998.78 825.31 998.78 M 813.31 1004.78 m -1, 0 a 1,1 0 1,0 2,0 a 1,1 0 1,0 -2,0 M 813.31 1004.78 m -0.5, 0 a 0.5,0.5 0 1,0 1,0 a 0.5,0.5 0 1,0 -1,0  M813.31 1004.78 L813.31 1004.78 820.31 998.78 813.31 992.78 M 813.31 992.78 m -1, 0 a 1,1 0 1,0 2,0 a 1,1 0 1,0 -2,0 M 813.31 992.78 m -0.5, 0 a 0.5,0.5 0 1,0 1,0 a 0.5,0.5 0 1,0 -1,0  M825.31 998.78 Q 859.8 998.78, 894.28 878.89 T 963.25 759 M 975.25 759 m -1, 0 a 1,1 0 1,0 2,0 a 1,1 0 1,0 -2,0 M 975.25 759 m -0.5, 0 a 0.5,0.5 0 1,0 1,0 a 0.5,0.5 0 1,0 -1,0  M975.25 759 L975.25 759 963.25 759 M969.25 765 L969.25 765 969.25 753" id="h299058967" class="r"></path><path d="M 676.78 1023.78 m -1, 0 a 1,1 0 1,0 2,0 a 1,1 0 1,0 -2,0 M 676.78 1023.78 m -0.5, 0 a 0.5,0.5 0 1,0 1,0 a 0.5,0.5 0 1,0 -1,0  M676.78 1023.78 L676.78 1023.78 664.78 1023.78 M 676.78 1029.78 m -1, 0 a 1,1 0 1,0 2,0 a 1,1 0 1,0 -2,0 M 676.78 1029.78 m -0.5, 0 a 0.5,0.5 0 1,0 1,0 a 0.5,0.5 0 1,0 -1,0  M676.78 1029.78 L676.78 1029.78 669.78 1023.78 676.78 1017.78 M 676.78 1017.78 m -1, 0 a 1,1 0 1,0 2,0 a 1,1 0 1,0 -2,0 M 676.78 1017.78 m -0.5, 0 a 0.5,0.5 0 1,0 1,0 a 0.5,0.5 0 1,0 -1,0  M664.78 1023.78 Q 637.85 1023.78, 610.91 961.39 T 557.04 899 M 545.04 899 m -1, 0 a 1,1 0 1,0 2,0 a 1,1 0 1,0 -2,0 M 545.04 899 m -0.5, 0 a 0.5,0.5 0 1,0 1,0 a 0.5,0.5 0 1,0 -1,0  M545.04 899 L545.04 899 557.04 899 M551.04 905 L551.04 905 551.04 893" id="h1409105687" class="r"></path><path d="M 217.95 819.5 m -1, 0 a 1,1 0 1,0 2,0 a 1,1 0 1,0 -2,0 M 217.95 819.5 m -0.5, 0 a 0.5,0.5 0 1,0 1,0 a 0.5,0.5 0 1,0 -1,0  M217.95 819.5 L217.95 819.5 229.95 819.5 M 217.95 825.5 m -1, 0 a 1,1 0 1,0 2,0 a 1,1 0 1,0 -2,0 M 217.95 825.5 m -0.5, 0 a 0.5,0.5 0 1,0 1,0 a 0.5,0.5 0 1,0 -1,0  M217.95 825.5 L217.95 825.5 224.95 819.5 217.95 813.5 M 217.95 813.5 m -1, 0 a 1,1 0 1,0 2,0 a 1,1 0 1,0 -2,0 M 217.95 813.5 m -0.5, 0 a 0.5,0.5 0 1,0 1,0 a 0.5,0.5 0 1,0 -1,0  M229.95 819.5 Q 254.22 819.5, 278.48 747.38 T 327 675.25 M 339 675.25 m -1, 0 a 1,1 0 1,0 2,0 a 1,1 0 1,0 -2,0 M 339 675.25 m -0.5, 0 a 0.5,0.5 0 1,0 1,0 a 0.5,0.5 0 1,0 -1,0  M339 675.25 L339 675.25 327 675.25 M333 681.25 L333 681.25 333 669.25" id="h2089443335" class="r"></path><path d="M 217.95 844.5 m -1, 0 a 1,1 0 1,0 2,0 a 1,1 0 1,0 -2,0 M 217.95 844.5 m -0.5, 0 a 0.5,0.5 0 1,0 1,0 a 0.5,0.5 0 1,0 -1,0  M217.95 844.5 L217.95 844.5 229.95 844.5 M 217.95 850.5 m -1, 0 a 1,1 0 1,0 2,0 a 1,1 0 1,0 -2,0 M 217.95 850.5 m -0.5, 0 a 0.5,0.5 0 1,0 1,0 a 0.5,0.5 0 1,0 -1,0  M217.95 850.5 L217.95 850.5 224.95 844.5 217.95 838.5 M 217.95 838.5 m -1, 0 a 1,1 0 1,0 2,0 a 1,1 0 1,0 -2,0 M 217.95 838.5 m -0.5, 0 a 0.5,0.5 0 1,0 1,0 a 0.5,0.5 0 1,0 -1,0  M229.95 844.5 Q 272.22 844.5, 314.48 871.75 T 399 899 M 411 899 m -1, 0 a 1,1 0 1,0 2,0 a 1,1 0 1,0 -2,0 M 411 899 m -0.5, 0 a 0.5,0.5 0 1,0 1,0 a 0.5,0.5 0 1,0 -1,0  M411 899 L411 899 399 899 M405 905 L405 905 405 893" id="h2245537138" class="r"></path><path d="M 802.53 713.5 m -1, 0 a 1,1 0 1,0 2,0 a 1,1 0 1,0 -2,0 M 802.53 713.5 m -0.5, 0 a 0.5,0.5 0 1,0 1,0 a 0.5,0.5 0 1,0 -1,0  M802.53 713.5 L802.53 713.5 814.53 713.5 M 802.53 719.5 m -1, 0 a 1,1 0 1,0 2,0 a 1,1 0 1,0 -2,0 M 802.53 719.5 m -0.5, 0 a 0.5,0.5 0 1,0 1,0 a 0.5,0.5 0 1,0 -1,0  M802.53 719.5 L802.53 719.5 809.53 713.5 802.53 707.5 M 802.53 707.5 m -1, 0 a 1,1 0 1,0 2,0 a 1,1 0 1,0 -2,0 M 802.53 707.5 m -0.5, 0 a 0.5,0.5 0 1,0 1,0 a 0.5,0.5 0 1,0 -1,0  M814.53 713.5 Q 851.71 713.5, 888.89 736.25 T 963.25 759 M 975.25 759 m -1, 0 a 1,1 0 1,0 2,0 a 1,1 0 1,0 -2,0 M 975.25 759 m -0.5, 0 a 0.5,0.5 0 1,0 1,0 a 0.5,0.5 0 1,0 -1,0  M975.25 759 L975.25 759 963.25 759 M969.25 765 L969.25 765 969.25 753" id="h2337166200" class="r"></path><path d="M 658.25 738.5 m -1, 0 a 1,1 0 1,0 2,0 a 1,1 0 1,0 -2,0 M 658.25 738.5 m -0.5, 0 a 0.5,0.5 0 1,0 1,0 a 0.5,0.5 0 1,0 -1,0  M658.25 738.5 L658.25 738.5 646.25 738.5 M 658.25 744.5 m -1, 0 a 1,1 0 1,0 2,0 a 1,1 0 1,0 -2,0 M 658.25 744.5 m -0.5, 0 a 0.5,0.5 0 1,0 1,0 a 0.5,0.5 0 1,0 -1,0  M658.25 744.5 L658.25 744.5 651.25 738.5 658.25 732.5 M 658.25 732.5 m -1, 0 a 1,1 0 1,0 2,0 a 1,1 0 1,0 -2,0 M 658.25 732.5 m -0.5, 0 a 0.5,0.5 0 1,0 1,0 a 0.5,0.5 0 1,0 -1,0  M646.25 738.5 Q 607.45 738.5, 568.65 706.88 T 491.04 675.25 M 479.04 675.25 m -1, 0 a 1,1 0 1,0 2,0 a 1,1 0 1,0 -2,0 M 479.04 675.25 m -0.5, 0 a 0.5,0.5 0 1,0 1,0 a 0.5,0.5 0 1,0 -1,0  M479.04 675.25 L479.04 675.25 491.04 675.25 M485.04 681.25 L485.04 681.25 485.04 669.25" id="h3050986276" class="r"></path><path d="M 257.3 1082 m -1, 0 a 1,1 0 1,0 2,0 a 1,1 0 1,0 -2,0 M 257.3 1082 m -0.5, 0 a 0.5,0.5 0 1,0 1,0 a 0.5,0.5 0 1,0 -1,0  M257.3 1082 L257.3 1082 269.3 1082 M 257.3 1088 m -1, 0 a 1,1 0 1,0 2,0 a 1,1 0 1,0 -2,0 M 257.3 1088 m -0.5, 0 a 0.5,0.5 0 1,0 1,0 a 0.5,0.5 0 1,0 -1,0  M257.3 1088 L257.3 1088 264.3 1082 257.3 1076 M 257.3 1076 m -1, 0 a 1,1 0 1,0 2,0 a 1,1 0 1,0 -2,0 M 257.3 1076 m -0.5, 0 a 0.5,0.5 0 1,0 1,0 a 0.5,0.5 0 1,0 -1,0  M269.3 1082 Q 301.73 1082, 334.15 990.5 T 399 899 M 411 899 m -1, 0 a 1,1 0 1,0 2,0 a 1,1 0 1,0 -2,0 M 411 899 m -0.5, 0 a 0.5,0.5 0 1,0 1,0 a 0.5,0.5 0 1,0 -1,0  M411 899 L411 899 399 899 M405 905 L405 905 405 893" id="h567215056" class="r"></path></g><g class="hrs"></g><g class="ts"><svg width="136.53" height="200" x="676.78" y="841.78" id="h240705295" class="t"><rect height="40" width="136.53" class="th"></rect><text x="13" y="25" class="tht">Rental</text><rect height="160" width="136.53" class="t-bg"></rect><text x="13" y="61" class="tf pk">Rental_ID<tspan x="123.53" class="ty">int</tspan></text><path d="M7,14A2,2 0 0,1 5,12A2,2 0 0,1 7,10A2,2 0 0,1 9,12A2,2 0 0,1 7,14M12.65,10C11.83,7.67 9.61,6 7, 6A6, 6 0 0, 0 1, 12A6, 6 0 0, 0 7, 18C9.61, 18 11.83, 16.33 12.65, 14H17V18H21V14H23V10H12.65Z" class="i pk" transform="translate(90.856171875, 48) scale(0.65)"></path><text x="13" y="86" class="tf">pickup_date<tspan x="123.53" class="ty">date</tspan></text><text x="13" y="111" class="tf">dropoff_date<tspan x="123.53" class="ty">date</tspan></text><text x="13" y="136" class="tf fk">car_ID<tspan x="123.53" class="ty">int</tspan></text><text x="13" y="161" class="tf fk">customer_ID<tspan x="123.53" class="ty">int</tspan></text><text x="13" y="186" class="tf fk">branch_ID<tspan x="123.53" class="ty">int</tspan></text></svg><svg width="134.04" height="100" x="411" y="842" id="h1874015840" class="t"><rect height="40" width="134.04" class="th"></rect><text x="13" y="25" class="tht">Branch</text><rect height="60" width="134.04" class="t-bg"></rect><text x="13" y="61" class="tf pk">branch_ID<tspan x="121.03999999999999" class="ty">int</tspan></text><path d="M7,14A2,2 0 0,1 5,12A2,2 0 0,1 7,10A2,2 0 0,1 9,12A2,2 0 0,1 7,14M12.65,10C11.83,7.67 9.61,6 7, 6A6, 6 0 0, 0 1, 12A6, 6 0 0, 0 7, 18C9.61, 18 11.83, 16.33 12.65, 14H17V18H21V14H23V10H12.65Z" class="i pk" transform="translate(88.36617187499999, 48) scale(0.65)"></path><text x="13" y="86" class="tf">name<tspan x="121.03999999999999" class="ty">varchar</tspan></text></svg><svg width="127.95" height="100" x="90" y="762.5" id="h371104449" class="t"><rect height="40" width="127.95" class="th"></rect><text x="13" y="25" class="tht">Branch_address</text><rect height="60" width="127.95" class="t-bg"></rect><text x="13" y="61" class="tf fk">address_id<tspan x="114.95" class="ty">int</tspan></text><text x="13" y="86" class="tf fk">branch_id<tspan x="114.95" class="ty">int</tspan></text></svg><svg width="140.04" height="150" x="339" y="618.25" id="h1446055005" class="t"><rect height="40" width="140.04" class="th"></rect><text x="13" y="25" class="tht">Address</text><rect height="110" width="140.04" class="t-bg"></rect><text x="13" y="61" class="tf pk">address_ID<tspan x="127.03999999999999" class="ty">int</tspan></text><path d="M7,14A2,2 0 0,1 5,12A2,2 0 0,1 7,10A2,2 0 0,1 9,12A2,2 0 0,1 7,14M12.65,10C11.83,7.67 9.61,6 7, 6A6, 6 0 0, 0 1, 12A6, 6 0 0, 0 7, 18C9.61, 18 11.83, 16.33 12.65, 14H17V18H21V14H23V10H12.65Z" class="i pk" transform="translate(94.36617187499999, 48) scale(0.65)"></path><text x="13" y="86" class="tf">street<tspan x="127.03999999999999" class="ty">varchar</tspan></text><text x="13" y="111" class="tf">city<tspan x="127.03999999999999" class="ty">varchar</tspan></text><text x="13" y="136" class="tf">postcode<tspan x="127.03999999999999" class="ty">varchar</tspan></text></svg><svg width="146.7" height="125" x="975.25" y="702" id="h1304670300" class="t"><rect height="40" width="146.7" class="th"></rect><text x="13" y="25" class="tht">Customer</text><rect height="85" width="146.7" class="t-bg"></rect><text x="13" y="61" class="tf pk">customer_ID<tspan x="133.7" class="ty">int</tspan></text><path d="M7,14A2,2 0 0,1 5,12A2,2 0 0,1 7,10A2,2 0 0,1 9,12A2,2 0 0,1 7,14M12.65,10C11.83,7.67 9.61,6 7, 6A6, 6 0 0, 0 1, 12A6, 6 0 0, 0 7, 18C9.61, 18 11.83, 16.33 12.65, 14H17V18H21V14H23V10H12.65Z" class="i pk" transform="translate(101.02617187499999, 48) scale(0.65)"></path><text x="13" y="86" class="tf">first_name<tspan x="133.7" class="ty">varchar</tspan></text><text x="13" y="111" class="tf">last_name<tspan x="133.7" class="ty">varchar</tspan></text></svg><svg width="144.28" height="100" x="658.25" y="656.5" id="h604743108" class="t"><rect height="40" width="144.28" class="th"></rect><text x="13" y="25" class="tht">Customer_address</text><rect height="60" width="144.28" class="t-bg"></rect><text x="13" y="61" class="tf fk">customer_ID<tspan x="131.28" class="ty">int</tspan></text><text x="13" y="86" class="tf fk">address_ID<tspan x="131.28" class="ty">int</tspan></text></svg><svg width="141.37" height="225" x="982.75" y="970" id="h3833210116" class="t"><rect height="40" width="141.37" class="th"></rect><text x="13" y="25" class="tht">Car</text><rect height="185" width="141.37" class="t-bg"></rect><text x="13" y="61" class="tf pk">car_ID<tspan x="128.37" class="ty">int</tspan></text><path d="M7,14A2,2 0 0,1 5,12A2,2 0 0,1 7,10A2,2 0 0,1 9,12A2,2 0 0,1 7,14M12.65,10C11.83,7.67 9.61,6 7, 6A6, 6 0 0, 0 1, 12A6, 6 0 0, 0 7, 18C9.61, 18 11.83, 16.33 12.65, 14H17V18H21V14H23V10H12.65Z" class="i pk" transform="translate(95.696171875, 48) scale(0.65)"></path><text x="13" y="86" class="tf">availability<tspan x="128.37" class="ty">varchar</tspan></text><text x="13" y="111" class="tf">make<tspan x="128.37" class="ty">varchar</tspan></text><text x="13" y="136" class="tf">model<tspan x="128.37" class="ty">varchar</tspan></text><text x="13" y="161" class="tf">color<tspan x="128.37" class="ty">varchar</tspan></text><text x="13" y="186" class="tf">year<tspan x="128.37" class="ty">int</tspan></text><text x="13" y="211" class="tf">condition<tspan x="128.37" class="ty">varchar</tspan></text></svg><svg width="149.38" height="175" x="107.92" y="950" id="h2421874875" class="t"><rect height="40" width="149.38" class="th"></rect><text x="13" y="25" class="tht">Employee</text><rect height="135" width="149.38" class="t-bg"></rect><text x="13" y="61" class="tf pk">employee_ID<tspan x="136.38" class="ty">int</tspan></text><path d="M7,14A2,2 0 0,1 5,12A2,2 0 0,1 7,10A2,2 0 0,1 9,12A2,2 0 0,1 7,14M12.65,10C11.83,7.67 9.61,6 7, 6A6, 6 0 0, 0 1, 12A6, 6 0 0, 0 7, 18C9.61, 18 11.83, 16.33 12.65, 14H17V18H21V14H23V10H12.65Z" class="i pk" transform="translate(103.706171875, 48) scale(0.65)"></path><text x="13" y="86" class="tf">first_name<tspan x="136.38" class="ty">varchar</tspan></text><text x="13" y="111" class="tf">last_name<tspan x="136.38" class="ty">varchar</tspan></text><text x="13" y="136" class="tf fk">branch_ID<tspan x="136.38" class="ty">int</tspan></text><text x="13" y="161" class="tf">role<tspan x="136.38" class="ty">varchar</tspan></text></svg></g></g><text class="qdbd-link" x="10" y="20">www.quickdatabasediagrams.com</text></svg>