<svg class="diagram-root" style="background: #f5f6f6" xmlns="http://www.w3.org/2000/svg" xmlns:xlink="http://www.w3.org/1999/xlink"><style>.diagram-root { font-family: "Helvetica Neue", sans-serif; font-size: 12px; } .t { overflow: visible; } .t-bg { y: 40; fill: #fff;   } .th { fill: #005aa0;   } .tht { fill: #fff; font-size: 14px;  } .tf { fill: #323c46; overflow: visible; } .tf.pk { fill: #005aa0; font-weight: bold; } .tf.fk { font-weight: bold; } .ty { fill: #adb1b5; font-weight: normal; text-anchor: end; } .r { fill: transparent; stroke: #c3c3c3; stroke-width: 1; } .l { stroke: 1; } .i { fill: #c2c7ce; stroke: #c2c7ce; } .i.ix { fill: #afb3b6; stroke: #000; } .fa { fill: transparent; overflow: visible; } .fa .bg.hover { fill: #f7f7f7; } .c { cy: 12; r: 4; stroke: #d2d2dc; fill: #d2d2dc; } .hr { fill: transparent; stroke: #323c46; stroke-opacity: 0.035; stroke-width: 13; } .dc { stroke: #fa5a3c; fill: #fa5a3c; } .x { stroke: white; stroke-width: 1; } .hl .th { fill: #1b9bff; } .hl .tht {  } .fhl .bg { fill: #e7f4ff; } .fhls .bg {  } .r.hl { stroke: #1b9bff; } .dim { opacity: 0.25; }</style><g class="drawing-wrapper" transform="translate(7.550000000000054, -43.33555555555489) scale(1,1)"><g class="rs"><path d="M 264.45 130.34 m -1, 0 a 1,1 0 1,0 2,0 a 1,1 0 1,0 -2,0 M 264.45 130.34 m -0.5, 0 a 0.5,0.5 0 1,0 1,0 a 0.5,0.5 0 1,0 -1,0  M264.45 130.34 L264.45 130.34 252.45 130.34 M 264.45 136.34 m -1, 0 a 1,1 0 1,0 2,0 a 1,1 0 1,0 -2,0 M 264.45 136.34 m -0.5, 0 a 0.5,0.5 0 1,0 1,0 a 0.5,0.5 0 1,0 -1,0  M264.45 136.34 L264.45 136.34 257.45 130.34 264.45 124.34 M 264.45 124.34 m -1, 0 a 1,1 0 1,0 2,0 a 1,1 0 1,0 -2,0 M 264.45 124.34 m -0.5, 0 a 0.5,0.5 0 1,0 1,0 a 0.5,0.5 0 1,0 -1,0  M252.45 130.34 C 202.45 130.34, 192.38799999999998 352.56, 269.22 352.56 M 281.22 352.56 m -1, 0 a 1,1 0 1,0 2,0 a 1,1 0 1,0 -2,0 M 281.22 352.56 m -0.5, 0 a 0.5,0.5 0 1,0 1,0 a 0.5,0.5 0 1,0 -1,0  M281.22 352.56 L281.22 352.56 269.22 352.56 M275.22 358.56 L275.22 358.56 275.22 346.56" id="h1606027816" class="r"></path><path d="M 169.17 323.66 m -1, 0 a 1,1 0 1,0 2,0 a 1,1 0 1,0 -2,0 M 169.17 323.66 m -0.5, 0 a 0.5,0.5 0 1,0 1,0 a 0.5,0.5 0 1,0 -1,0  M169.17 323.66 L169.17 323.66 181.17 323.66 M 169.17 329.66 m -1, 0 a 1,1 0 1,0 2,0 a 1,1 0 1,0 -2,0 M 169.17 329.66 m -0.5, 0 a 0.5,0.5 0 1,0 1,0 a 0.5,0.5 0 1,0 -1,0  M169.17 329.66 L169.17 329.66 176.17 323.66 169.17 317.66 M 169.17 317.66 m -1, 0 a 1,1 0 1,0 2,0 a 1,1 0 1,0 -2,0 M 169.17 317.66 m -0.5, 0 a 0.5,0.5 0 1,0 1,0 a 0.5,0.5 0 1,0 -1,0  M181.17 323.66 Q 203.19 323.66, 225.2 363.11 T 269.22 402.56 M 281.22 402.56 m -1, 0 a 1,1 0 1,0 2,0 a 1,1 0 1,0 -2,0 M 281.22 402.56 m -0.5, 0 a 0.5,0.5 0 1,0 1,0 a 0.5,0.5 0 1,0 -1,0  M281.22 402.56 L281.22 402.56 269.22 402.56 M275.22 408.56 L275.22 408.56 275.22 396.56" id="h4047055142" class="r"></path><path d="M 823.33 362.55 m -1, 0 a 1,1 0 1,0 2,0 a 1,1 0 1,0 -2,0 M 823.33 362.55 m -0.5, 0 a 0.5,0.5 0 1,0 1,0 a 0.5,0.5 0 1,0 -1,0  M823.33 362.55 L823.33 362.55 811.33 362.55 M 823.33 368.55 m -1, 0 a 1,1 0 1,0 2,0 a 1,1 0 1,0 -2,0 M 823.33 368.55 m -0.5, 0 a 0.5,0.5 0 1,0 1,0 a 0.5,0.5 0 1,0 -1,0  M823.33 368.55 L823.33 368.55 816.33 362.55 823.33 356.55 M 823.33 356.55 m -1, 0 a 1,1 0 1,0 2,0 a 1,1 0 1,0 -2,0 M 823.33 356.55 m -0.5, 0 a 0.5,0.5 0 1,0 1,0 a 0.5,0.5 0 1,0 -1,0  M811.33 362.55 Q 789.69 362.55, 768.04 370.05 T 724.74 377.55 M 712.74 377.55 m -1, 0 a 1,1 0 1,0 2,0 a 1,1 0 1,0 -2,0 M 712.74 377.55 m -0.5, 0 a 0.5,0.5 0 1,0 1,0 a 0.5,0.5 0 1,0 -1,0  M712.74 377.55 L712.74 377.55 724.74 377.55 M718.74 383.55 L718.74 383.55 718.74 371.55" id="h2449374604" class="r"></path><path d="M 526.66 402.55 m -1, 0 a 1,1 0 1,0 2,0 a 1,1 0 1,0 -2,0 M 526.66 402.55 m -0.5, 0 a 0.5,0.5 0 1,0 1,0 a 0.5,0.5 0 1,0 -1,0  M526.66 402.55 L526.66 402.55 514.66 402.55 M 526.66 408.55 m -1, 0 a 1,1 0 1,0 2,0 a 1,1 0 1,0 -2,0 M 526.66 408.55 m -0.5, 0 a 0.5,0.5 0 1,0 1,0 a 0.5,0.5 0 1,0 -1,0  M526.66 408.55 L526.66 408.55 519.66 402.55 526.66 396.55 M 526.66 396.55 m -1, 0 a 1,1 0 1,0 2,0 a 1,1 0 1,0 -2,0 M 526.66 396.55 m -0.5, 0 a 0.5,0.5 0 1,0 1,0 a 0.5,0.5 0 1,0 -1,0  M514.66 402.55 Q 498.49 402.55, 482.31 352.56 T 449.96 302.56 M 437.96 302.56 m -1, 0 a 1,1 0 1,0 2,0 a 1,1 0 1,0 -2,0 M 437.96 302.56 m -0.5, 0 a 0.5,0.5 0 1,0 1,0 a 0.5,0.5 0 1,0 -1,0  M437.96 302.56 L437.96 302.56 449.96 302.56 M443.96 308.56 L443.96 308.56 443.96 296.56" id="h1904091844" class="r"></path><path d="M 1270.5 176.44 m -1, 0 a 1,1 0 1,0 2,0 a 1,1 0 1,0 -2,0 M 1270.5 176.44 m -0.5, 0 a 0.5,0.5 0 1,0 1,0 a 0.5,0.5 0 1,0 -1,0  M1270.5 176.44 L1270.5 176.44 1282.5 176.44 M 1270.5 182.44 m -1, 0 a 1,1 0 1,0 2,0 a 1,1 0 1,0 -2,0 M 1270.5 182.44 m -0.5, 0 a 0.5,0.5 0 1,0 1,0 a 0.5,0.5 0 1,0 -1,0  M1270.5 182.44 L1270.5 182.44 1277.5 176.44 1270.5 170.44 M 1270.5 170.44 m -1, 0 a 1,1 0 1,0 2,0 a 1,1 0 1,0 -2,0 M 1270.5 170.44 m -0.5, 0 a 0.5,0.5 0 1,0 1,0 a 0.5,0.5 0 1,0 -1,0  M1282.5 176.44 Q 1306.1 176.44, 1329.7 214.5 T 1376.89 252.55 M 1388.89 252.55 m -1, 0 a 1,1 0 1,0 2,0 a 1,1 0 1,0 -2,0 M 1388.89 252.55 m -0.5, 0 a 0.5,0.5 0 1,0 1,0 a 0.5,0.5 0 1,0 -1,0  M1388.89 252.55 L1388.89 252.55 1376.89 252.55 M1382.89 258.55 L1382.89 258.55 1382.89 246.55" id="h1253731027" class="r"></path><path d="M 1111.11 201.44 m -1, 0 a 1,1 0 1,0 2,0 a 1,1 0 1,0 -2,0 M 1111.11 201.44 m -0.5, 0 a 0.5,0.5 0 1,0 1,0 a 0.5,0.5 0 1,0 -1,0  M1111.11 201.44 L1111.11 201.44 1099.11 201.44 M 1111.11 207.44 m -1, 0 a 1,1 0 1,0 2,0 a 1,1 0 1,0 -2,0 M 1111.11 207.44 m -0.5, 0 a 0.5,0.5 0 1,0 1,0 a 0.5,0.5 0 1,0 -1,0  M1111.11 207.44 L1111.11 207.44 1104.11 201.44 1111.11 195.44 M 1111.11 195.44 m -1, 0 a 1,1 0 1,0 2,0 a 1,1 0 1,0 -2,0 M 1111.11 195.44 m -0.5, 0 a 0.5,0.5 0 1,0 1,0 a 0.5,0.5 0 1,0 -1,0  M1099.11 201.44 Q 1065.84 201.44, 1032.57 282 T 966.04 362.55 M 954.04 362.55 m -1, 0 a 1,1 0 1,0 2,0 a 1,1 0 1,0 -2,0 M 954.04 362.55 m -0.5, 0 a 0.5,0.5 0 1,0 1,0 a 0.5,0.5 0 1,0 -1,0  M954.04 362.55 L954.04 362.55 966.04 362.55 M960.04 368.55 L960.04 368.55 960.04 356.55" id="h3339076445" class="r"></path><path d="M 1287.74 493.66 m -1, 0 a 1,1 0 1,0 2,0 a 1,1 0 1,0 -2,0 M 1287.74 493.66 m -0.5, 0 a 0.5,0.5 0 1,0 1,0 a 0.5,0.5 0 1,0 -1,0  M1287.74 493.66 L1287.74 493.66 1299.74 493.66 M 1287.74 499.66 m -1, 0 a 1,1 0 1,0 2,0 a 1,1 0 1,0 -2,0 M 1287.74 499.66 m -0.5, 0 a 0.5,0.5 0 1,0 1,0 a 0.5,0.5 0 1,0 -1,0  M1287.74 499.66 L1287.74 499.66 1294.74 493.66 1287.74 487.66 M 1287.74 487.66 m -1, 0 a 1,1 0 1,0 2,0 a 1,1 0 1,0 -2,0 M 1287.74 487.66 m -0.5, 0 a 0.5,0.5 0 1,0 1,0 a 0.5,0.5 0 1,0 -1,0  M1299.74 493.66 Q 1319.03 493.66, 1338.32 373.11 T 1376.89 252.55 M 1388.89 252.55 m -1, 0 a 1,1 0 1,0 2,0 a 1,1 0 1,0 -2,0 M 1388.89 252.55 m -0.5, 0 a 0.5,0.5 0 1,0 1,0 a 0.5,0.5 0 1,0 -1,0  M1388.89 252.55 L1388.89 252.55 1376.89 252.55 M1382.89 258.55 L1382.89 258.55 1382.89 246.55" id="h627411617" class="r"></path></g><g class="hrs"></g><g class="ts"><svg width="156.74" height="175" x="281.22" y="245.56" id="h1620576168" class="t"><rect height="40" width="156.74" class="th"></rect><text x="13" y="25" class="tht">Customers</text><rect height="135" width="156.74" class="t-bg"></rect><text x="13" y="61" class="tf pk">customer_id<tspan x="143.74" class="ty">int</tspan></text><path d="M7,14A2,2 0 0,1 5,12A2,2 0 0,1 7,10A2,2 0 0,1 9,12A2,2 0 0,1 7,14M12.65,10C11.83,7.67 9.61,6 7, 6A6, 6 0 0, 0 1, 12A6, 6 0 0, 0 7, 18C9.61, 18 11.83, 16.33 12.65, 14H17V18H21V14H23V10H12.65Z" class="i pk" transform="translate(111.06617187500001, 48) scale(0.65)"></path><text x="13" y="86" class="tf">name<tspan x="143.74" class="ty">varchar</tspan></text><text x="13" y="111" class="tf fk">contact_person_id<tspan x="143.74" class="ty">int</tspan></text><text x="13" y="136" class="tf">address<tspan x="143.74" class="ty">varchar</tspan></text><text x="13" y="161" class="tf fk">postcode<tspan x="143.74" class="ty">varchar</tspan></text></svg><svg width="204.76" height="150" x="264.45" y="73.34" id="h474512705" class="t"><rect height="40" width="204.76" class="th"></rect><text x="13" y="25" class="tht">contact_person</text><rect height="110" width="204.76" class="t-bg"></rect><text x="13" y="61" class="tf pk">contact_person_id<tspan x="191.76" class="ty">int</tspan></text><path d="M7,14A2,2 0 0,1 5,12A2,2 0 0,1 7,10A2,2 0 0,1 9,12A2,2 0 0,1 7,14M12.65,10C11.83,7.67 9.61,6 7, 6A6, 6 0 0, 0 1, 12A6, 6 0 0, 0 7, 18C9.61, 18 11.83, 16.33 12.65, 14H17V18H21V14H23V10H12.65Z" class="i pk" transform="translate(159.086171875, 48) scale(0.65)"></path><text x="13" y="86" class="tf">contact_person_name<tspan x="191.76" class="ty">varchar</tspan></text><text x="13" y="111" class="tf">role<tspan x="191.76" class="ty">varchar</tspan></text><text x="13" y="136" class="tf">phone_number<tspan x="191.76" class="ty">varchar</tspan></text></svg><svg width="154.72" height="100" x="14.45" y="266.66" id="h3077849010" class="t"><rect height="40" width="154.72" class="th"></rect><text x="13" y="25" class="tht">Postcode</text><rect height="60" width="154.72" class="t-bg"></rect><text x="13" y="61" class="tf pk">postcode<tspan x="141.72" class="ty">varchar</tspan></text><path d="M7,14A2,2 0 0,1 5,12A2,2 0 0,1 7,10A2,2 0 0,1 9,12A2,2 0 0,1 7,14M12.65,10C11.83,7.67 9.61,6 7, 6A6, 6 0 0, 0 1, 12A6, 6 0 0, 0 7, 18C9.61, 18 11.83, 16.33 12.65, 14H17V18H21V14H23V10H12.65Z" class="i pk" transform="translate(81.706328125, 48) scale(0.65)"></path><text x="13" y="86" class="tf">city<tspan x="141.72" class="ty">varchar</tspan></text></svg><svg width="130.71" height="175" x="823.33" y="305.55" id="h202149960" class="t"><rect height="40" width="130.71" class="th"></rect><text x="13" y="25" class="tht">Project</text><rect height="135" width="130.71" class="t-bg"></rect><text x="13" y="61" class="tf pk">project_id<tspan x="117.71000000000001" class="ty">int</tspan></text><path d="M7,14A2,2 0 0,1 5,12A2,2 0 0,1 7,10A2,2 0 0,1 9,12A2,2 0 0,1 7,14M12.65,10C11.83,7.67 9.61,6 7, 6A6, 6 0 0, 0 1, 12A6, 6 0 0, 0 7, 18C9.61, 18 11.83, 16.33 12.65, 14H17V18H21V14H23V10H12.65Z" class="i pk" transform="translate(85.03617187500001, 48) scale(0.65)"></path><text x="13" y="86" class="tf">name<tspan x="117.71000000000001" class="ty">varchar</tspan></text><text x="13" y="111" class="tf">value<tspan x="117.71000000000001" class="ty">float</tspan></text><text x="13" y="136" class="tf">start_date<tspan x="117.71000000000001" class="ty">date</tspan></text><text x="13" y="161" class="tf">end_date<tspan x="117.71000000000001" class="ty">date</tspan></text></svg><svg width="186.08" height="150" x="526.66" y="295.55" id="h1189318449" class="t"><rect height="40" width="186.08" class="th"></rect><text x="13" y="25" class="tht">project_feedback</text><rect height="110" width="186.08" class="t-bg"></rect><text x="13" y="61" class="tf pk">project_feedback_id<tspan x="173.08" class="ty">int</tspan></text><path d="M7,14A2,2 0 0,1 5,12A2,2 0 0,1 7,10A2,2 0 0,1 9,12A2,2 0 0,1 7,14M12.65,10C11.83,7.67 9.61,6 7, 6A6, 6 0 0, 0 1, 12A6, 6 0 0, 0 7, 18C9.61, 18 11.83, 16.33 12.65, 14H17V18H21V14H23V10H12.65Z" class="i pk" transform="translate(140.406171875, 48) scale(0.65)"></path><text x="13" y="86" class="tf fk">project_id<tspan x="173.08" class="ty">int</tspan></text><text x="13" y="111" class="tf fk">customer_id<tspan x="173.08" class="ty">int</tspan></text><text x="13" y="136" class="tf">project_feedback<tspan x="173.08" class="ty">text</tspan></text></svg><svg width="159.39" height="225" x="1111.11" y="94.44" id="h833937220" class="t"><rect height="40" width="159.39" class="th"></rect><text x="13" y="25" class="tht">job_order</text><rect height="185" width="159.39" class="t-bg"></rect><text x="13" y="61" class="tf pk">job_order_id<tspan x="146.39" class="ty">int</tspan></text><path d="M7,14A2,2 0 0,1 5,12A2,2 0 0,1 7,10A2,2 0 0,1 9,12A2,2 0 0,1 7,14M12.65,10C11.83,7.67 9.61,6 7, 6A6, 6 0 0, 0 1, 12A6, 6 0 0, 0 7, 18C9.61, 18 11.83, 16.33 12.65, 14H17V18H21V14H23V10H12.65Z" class="i pk" transform="translate(113.71617187499999, 48) scale(0.65)"></path><text x="13" y="86" class="tf fk">employee_id<tspan x="146.39" class="ty">int</tspan></text><text x="13" y="111" class="tf fk">project_id<tspan x="146.39" class="ty">int</tspan></text><text x="13" y="136" class="tf">description<tspan x="146.39" class="ty">varchar</tspan></text><text x="13" y="161" class="tf">order_date<tspan x="146.39" class="ty">timestamp</tspan></text><text x="13" y="186" class="tf">quantity<tspan x="146.39" class="ty">int</tspan></text><text x="13" y="211" class="tf">price<tspan x="146.39" class="ty">float</tspan></text></svg><svg width="189.41" height="150" x="1098.33" y="386.66" id="h1932641246" class="t"><rect height="40" width="189.41" class="th"></rect><text x="13" y="25" class="tht">employee_project</text><rect height="110" width="189.41" class="t-bg"></rect><text x="13" y="61" class="tf pk">employee_project_id<tspan x="176.41" class="ty">int</tspan></text><path d="M7,14A2,2 0 0,1 5,12A2,2 0 0,1 7,10A2,2 0 0,1 9,12A2,2 0 0,1 7,14M12.65,10C11.83,7.67 9.61,6 7, 6A6, 6 0 0, 0 1, 12A6, 6 0 0, 0 7, 18C9.61, 18 11.83, 16.33 12.65, 14H17V18H21V14H23V10H12.65Z" class="i pk" transform="translate(143.736171875, 48) scale(0.65)"></path><text x="13" y="86" class="tf fk">project_id<tspan x="176.41" class="ty">int</tspan></text><text x="13" y="111" class="tf fk">employee_id<tspan x="176.41" class="ty">int</tspan></text><text x="13" y="136" class="tf">hours<tspan x="176.41" class="ty">float</tspan></text></svg><svg width="146.72" height="175" x="1388.89" y="195.55" id="h1639608377" class="t"><rect height="40" width="146.72" class="th"></rect><text x="13" y="25" class="tht">employees</text><rect height="135" width="146.72" class="t-bg"></rect><text x="13" y="61" class="tf pk">employee_id<tspan x="133.72" class="ty">int</tspan></text><path d="M7,14A2,2 0 0,1 5,12A2,2 0 0,1 7,10A2,2 0 0,1 9,12A2,2 0 0,1 7,14M12.65,10C11.83,7.67 9.61,6 7, 6A6, 6 0 0, 0 1, 12A6, 6 0 0, 0 7, 18C9.61, 18 11.83, 16.33 12.65, 14H17V18H21V14H23V10H12.65Z" class="i pk" transform="translate(101.046171875, 48) scale(0.65)"></path><text x="13" y="86" class="tf">first_name<tspan x="133.72" class="ty">varchar</tspan></text><text x="13" y="111" class="tf">last_name<tspan x="133.72" class="ty">varchar</tspan></text><text x="13" y="136" class="tf">wage<tspan x="133.72" class="ty">float</tspan></text><text x="13" y="161" class="tf">hire_date<tspan x="133.72" class="ty">date</tspan></text></svg></g></g><text class="qdbd-link" x="10" y="20">www.quickdatabasediagrams.com</text></svg>